<svg width="80" height="80" viewBox="0 0 80 80" fill="none" xmlns="http://www.w3.org/2000/svg">
<g clip-path="url(#clip0_2495_32153)">
<path d="M0 40C0 17.9086 17.9086 0 40 0V0C62.0914 0 80 17.9086 80 40V40C80 62.0914 62.0914 80 40 80V80C17.9086 80 0 62.0914 0 40V40Z" fill="#F3F3F4"/>
<mask id="mask0_2495_32153" style="mask-type:alpha" maskUnits="userSpaceOnUse" x="0" y="0" width="80" height="80">
<circle cx="40" cy="40" r="40" fill="#D0D0D2"/>
</mask>
<g mask="url(#mask0_2495_32153)">
<ellipse cx="39.9996" cy="70.3998" rx="30.4" ry="17.6" fill="#D0D0D2"/>
</g>
<circle cx="39.9996" cy="33.9996" r="14.4" fill="#D0D0D2"/>
</g>
<defs>
<clipPath id="clip0_2495_32153">
<path d="M0 40C0 17.9086 17.9086 0 40 0V0C62.0914 0 80 17.9086 80 40V40C80 62.0914 62.0914 80 40 80V80C17.9086 80 0 62.0914 0 40V40Z" fill="white"/>
</clipPath>
</defs>
</svg>
